<svg width="100" height="100" viewBox="0 0 100 100" fill="none" xmlns="http://www.w3.org/2000/svg">
<path d="M73.6474 16.4348C74.0886 16.8727 74.4386 17.3925 74.6774 17.9647C74.9162 18.5369 75.0391 19.1502 75.0391 19.7695C75.0391 20.3888 74.9162 21.0021 74.6774 21.5743C74.4386 22.1464 74.0886 22.6663 73.6474 23.1042L69.304 27.4121H73.75C75.6217 27.4121 77.475 27.7781 79.2041 28.4893C80.9333 29.2004 82.5043 30.2427 83.8276 31.5567C85.1509 32.8707 86.2005 34.4306 86.9164 36.1473C87.6323 37.864 88.0005 39.7039 88 41.5619V69.854C88 73.6057 86.4987 77.2038 83.8263 79.8567C81.1539 82.5096 77.5293 84 73.75 84H26.25C22.4707 84 18.8461 82.5096 16.1737 79.8567C13.5013 77.2038 12 73.6057 12 69.854V41.5619C12 37.8102 13.5013 34.2121 16.1737 31.5592C18.8461 28.9063 22.4707 27.4159 26.25 27.4159H30.6808L26.345 23.108C25.8912 22.6731 25.5292 22.1529 25.2801 21.5777C25.031 21.0025 24.8998 20.3837 24.8941 19.7576C24.8885 19.1315 25.0085 18.5106 25.2471 17.931C25.4858 17.3515 25.8384 16.8249 26.2842 16.382C26.7301 15.9392 27.2603 15.5889 27.844 15.3516C28.4277 15.1144 29.0531 14.9949 29.6838 15.0002C30.3146 15.0054 30.9379 15.1353 31.5175 15.3823C32.0971 15.6293 32.6213 15.9883 33.0596 16.4386L43.1372 26.4426C43.4374 26.7407 43.6882 27.0651 43.8896 27.4121H56.099C56.3004 27.0651 56.555 26.7331 56.8552 26.4389L66.929 16.4348C67.3701 15.9968 67.8938 15.6494 68.4702 15.4123C69.0465 15.1753 69.6643 15.0533 70.2882 15.0533C70.9121 15.0533 71.5299 15.1753 72.1062 15.4123C72.6826 15.6494 73.2063 15.9968 73.6474 16.4348ZM73.75 36.8805H26.25C25.0511 36.8801 23.8964 37.3297 23.0175 38.1392C22.1386 38.9487 21.6006 40.0582 21.5114 41.245L21.5 41.5996V69.8917C21.5 72.3776 23.438 74.4146 25.8966 74.5919L26.25 74.607H73.75C74.9489 74.6075 76.1036 74.1578 76.9825 73.3484C77.8614 72.5389 78.3994 71.4294 78.4886 70.2425L78.5 69.8917V41.5996C78.5 38.9968 76.372 36.8843 73.75 36.8843V36.8805Z" fill="black"/>
<path fill-rule="evenodd" clip-rule="evenodd" d="M40.498 43.4091C42.0489 41.283 45.0424 40.8075 47.1842 42.3472L60.4082 51.8533C61.6517 52.7472 62.388 54.1789 62.388 55.703C62.388 57.2271 61.6517 58.6588 60.4082 59.5527L47.1842 69.0588C45.0424 70.5985 42.0489 70.123 40.498 67.9968C38.9471 65.8707 39.426 62.899 41.5678 61.3594L49.4364 55.703L41.5678 50.0466C39.426 48.507 38.9471 45.5353 40.498 43.4091Z" fill="black"/>
</svg>
